<svg width="116" height="16" viewBox="0 0 116 16" fill="none" xmlns="http://www.w3.org/2000/svg">
<path d="M12.4 0.96V15H8.98V9.22H3.66V15H0.24V0.96H3.66V6.46H8.98V0.96H12.4ZM25.3889 9.24C25.3889 9.56 25.3689 9.89333 25.3289 10.24H17.5889C17.6422 10.9333 17.8622 11.4667 18.2489 11.84C18.6489 12.2 19.1356 12.38 19.7089 12.38C20.5622 12.38 21.1556 12.02 21.4889 11.3H25.1289C24.9422 12.0333 24.6022 12.6933 24.1089 13.28C23.6289 13.8667 23.0222 14.3267 22.2889 14.66C21.5556 14.9933 20.7356 15.16 19.8289 15.16C18.7356 15.16 17.7622 14.9267 16.9089 14.46C16.0556 13.9933 15.3889 13.3267 14.9089 12.46C14.4289 11.5933 14.1889 10.58 14.1889 9.42C14.1889 8.26 14.4222 7.24667 14.8889 6.38C15.3689 5.51333 16.0356 4.84667 16.8889 4.38C17.7422 3.91333 18.7222 3.68 19.8289 3.68C20.9089 3.68 21.8689 3.90667 22.7089 4.36C23.5489 4.81333 24.2022 5.46 24.6689 6.3C25.1489 7.14 25.3889 8.12 25.3889 9.24ZM21.8889 8.34C21.8889 7.75333 21.6889 7.28667 21.2889 6.94C20.8889 6.59333 20.3889 6.42 19.7889 6.42C19.2156 6.42 18.7289 6.58667 18.3289 6.92C17.9422 7.25333 17.7022 7.72667 17.6089 8.34H21.8889ZM30.6131 0.2V15H27.1931V0.2H30.6131ZM36.5116 0.2V15H33.0916V0.2H36.5116ZM44.07 15.16C42.9767 15.16 41.99 14.9267 41.11 14.46C40.2433 13.9933 39.5567 13.3267 39.05 12.46C38.5567 11.5933 38.31 10.58 38.31 9.42C38.31 8.27333 38.5633 7.26667 39.07 6.4C39.5767 5.52 40.27 4.84667 41.15 4.38C42.03 3.91333 43.0167 3.68 44.11 3.68C45.2033 3.68 46.19 3.91333 47.07 4.38C47.95 4.84667 48.6433 5.52 49.15 6.4C49.6567 7.26667 49.91 8.27333 49.91 9.42C49.91 10.5667 49.65 11.58 49.13 12.46C48.6233 13.3267 47.9233 13.9933 47.03 14.46C46.15 14.9267 45.1633 15.16 44.07 15.16ZM44.07 12.2C44.7233 12.2 45.2767 11.96 45.73 11.48C46.1967 11 46.43 10.3133 46.43 9.42C46.43 8.52667 46.2033 7.84 45.75 7.36C45.31 6.88 44.7633 6.64 44.11 6.64C43.4433 6.64 42.89 6.88 42.45 7.36C42.01 7.82667 41.79 8.51333 41.79 9.42C41.79 10.3133 42.0033 11 42.43 11.48C42.87 11.96 43.4167 12.2 44.07 12.2ZM75.2827 0.96L71.6227 15H67.4827L65.2427 5.76L62.9227 15H58.7827L55.2227 0.96H58.8827L60.9027 11.18L63.4027 0.96H67.1627L69.5627 11.18L71.6027 0.96H75.2827ZM82.0778 15.16C80.9845 15.16 79.9978 14.9267 79.1178 14.46C78.2511 13.9933 77.5645 13.3267 77.0578 12.46C76.5645 11.5933 76.3178 10.58 76.3178 9.42C76.3178 8.27333 76.5711 7.26667 77.0778 6.4C77.5845 5.52 78.2778 4.84667 79.1578 4.38C80.0378 3.91333 81.0245 3.68 82.1178 3.68C83.2111 3.68 84.1978 3.91333 85.0778 4.38C85.9578 4.84667 86.6511 5.52 87.1578 6.4C87.6645 7.26667 87.9178 8.27333 87.9178 9.42C87.9178 10.5667 87.6578 11.58 87.1378 12.46C86.6311 13.3267 85.9311 13.9933 85.0378 14.46C84.1578 14.9267 83.1711 15.16 82.0778 15.16ZM82.0778 12.2C82.7311 12.2 83.2845 11.96 83.7378 11.48C84.2045 11 84.4378 10.3133 84.4378 9.42C84.4378 8.52667 84.2111 7.84 83.7578 7.36C83.3178 6.88 82.7711 6.64 82.1178 6.64C81.4511 6.64 80.8978 6.88 80.4578 7.36C80.0178 7.82667 79.7978 8.51333 79.7978 9.42C79.7978 10.3133 80.0111 11 80.4378 11.48C80.8778 11.96 81.4245 12.2 82.0778 12.2ZM93.1522 5.7C93.5522 5.08667 94.0522 4.60667 94.6522 4.26C95.2522 3.9 95.9189 3.72 96.6522 3.72V7.34H95.7122C94.8589 7.34 94.2189 7.52667 93.7922 7.9C93.3655 8.26 93.1522 8.9 93.1522 9.82V15H89.7322V3.84H93.1522V5.7ZM101.707 0.2V15H98.2869V0.2H101.707ZM103.505 9.4C103.505 8.25333 103.719 7.24667 104.145 6.38C104.585 5.51333 105.179 4.84667 105.925 4.38C106.672 3.91333 107.505 3.68 108.425 3.68C109.159 3.68 109.825 3.83333 110.425 4.14C111.039 4.44667 111.519 4.86 111.865 5.38V0.2H115.285V15H111.865V13.4C111.545 13.9333 111.085 14.36 110.485 14.68C109.899 15 109.212 15.16 108.425 15.16C107.505 15.16 106.672 14.9267 105.925 14.46C105.179 13.98 104.585 13.3067 104.145 12.44C103.719 11.56 103.505 10.5467 103.505 9.4ZM111.865 9.42C111.865 8.56667 111.625 7.89333 111.145 7.4C110.679 6.90667 110.105 6.66 109.425 6.66C108.745 6.66 108.165 6.90667 107.685 7.4C107.219 7.88 106.985 8.54667 106.985 9.4C106.985 10.2533 107.219 10.9333 107.685 11.44C108.165 11.9333 108.745 12.18 109.425 12.18C110.105 12.18 110.679 11.9333 111.145 11.44C111.625 10.9467 111.865 10.2733 111.865 9.42Z" fill="black"/>
</svg>
